<svg xmlns="http://www.w3.org/2000/svg" width="17.438" height="17.438" viewBox="0 0 17.438 17.438">
  <path id="Icon_awesome-question-circle" data-name="Icon awesome-question-circle" d="M18,9.281A8.719,8.719,0,1,1,9.281.563,8.718,8.718,0,0,1,18,9.281ZM9.515,3.445a4.554,4.554,0,0,0-4.1,2.241.422.422,0,0,0,.1.572l1.22.925a.422.422,0,0,0,.586-.075c.628-.8,1.059-1.258,2.015-1.258.718,0,1.607.462,1.607,1.159,0,.526-.435.8-1.144,1.194-.827.464-1.921,1.041-1.921,2.484v.141a.422.422,0,0,0,.422.422h1.969a.422.422,0,0,0,.422-.422v-.047c0-1,2.925-1.042,2.925-3.75C13.612,4.992,11.5,3.445,9.515,3.445Zm-.234,8.719A1.617,1.617,0,1,0,10.9,13.781,1.619,1.619,0,0,0,9.281,12.164Z" transform="translate(-0.563 -0.563)" fill="#fff"/>
</svg>
